<svg width="94" height="24" viewBox="0 0 94 24" fill="none" xmlns="http://www.w3.org/2000/svg">
<rect width="94" height="24" fill="white"/>
<rect width="43.4345" height="24" fill="#808080"/>
<path d="M8.48171 19.3644H4.63808V1.6438H8.48171V19.3644Z" fill="white"/>
<path d="M17.333 19.3644H13.8638V7.84599C13.8638 7.4072 13.6641 7.1878 13.2648 7.1878C13.0651 7.1878 12.9154 7.23843 12.8155 7.33969C12.7157 7.44095 12.6658 7.60128 12.6658 7.82068V19.3644H9.19654V5.0107H12.6658V5.49169C12.8655 5.32292 13.1483 5.18791 13.5144 5.08665C13.8971 4.96851 14.3297 4.90944 14.8122 4.90944C15.5443 4.90944 16.1434 5.11196 16.6092 5.51701C17.0918 5.90517 17.333 6.38616 17.333 6.95997V19.3644Z" fill="white"/>
<path d="M24.9066 19.3644H22.7103C21.2127 19.3644 20.2893 19.1618 19.9399 18.7568C19.6071 18.3349 19.4407 17.3813 19.4407 15.8962V7.13717H17.8933V5.0107H19.4407V2.12478H22.9099V5.0107H24.7818V7.13717H22.9099V15.8709C22.9099 16.2928 23.0514 16.5881 23.3342 16.7569C23.5339 16.875 23.8417 16.9341 24.2577 16.9341H24.9066V19.3644Z" fill="white"/>
<path d="M33.7359 16.6556C33.7359 17.7189 33.32 18.4952 32.488 18.9846C31.8224 19.3728 30.874 19.5669 29.6427 19.5669C28.4114 19.5669 27.463 19.3559 26.7974 18.934C25.9988 18.4277 25.5994 17.626 25.5994 16.5291V7.94725C25.5994 6.86714 25.9904 6.07394 26.7725 5.56764C27.4547 5.12884 28.4114 4.90944 29.6427 4.90944C30.8574 4.90944 31.8058 5.10353 32.488 5.49169C33.32 5.96424 33.7359 6.74057 33.7359 7.82068V13.2887H29.0687V16.6303C29.0687 16.8666 29.1186 17.0522 29.2184 17.1873C29.3183 17.3054 29.468 17.3645 29.6677 17.3645C29.8673 17.3645 30.0171 17.3054 30.1169 17.1873C30.2168 17.0522 30.2667 16.8666 30.2667 16.6303V13.7444H33.7359V16.6556ZM30.2667 11.137V7.84599C30.2667 7.60972 30.2168 7.43251 30.1169 7.31438C30.0171 7.19624 29.8673 7.13717 29.6677 7.13717C29.5013 7.13717 29.3599 7.19624 29.2434 7.31438C29.1269 7.43251 29.0687 7.60972 29.0687 7.84599V11.137H30.2667Z" fill="white"/>
<path d="M42.7066 10.9597H39.2373V7.84599C39.2373 7.4072 39.0377 7.1878 38.6383 7.1878C38.4387 7.1878 38.2889 7.23843 38.1891 7.33969C38.0893 7.44095 38.0393 7.60128 38.0393 7.82068V19.3644H34.5701V5.0107H38.0393V5.49169C38.239 5.32292 38.5219 5.18791 38.8879 5.08665C39.2706 4.96851 39.7032 4.90944 40.1858 4.90944C40.9179 4.90944 41.5169 5.11196 41.9828 5.51701C42.4653 5.90517 42.7066 6.38616 42.7066 6.95997V10.9597Z" fill="white"/>
<rect x="43.4345" width="50.5655" height="24" fill="white"/>
<path d="M52.0971 19.3644H49.5445L49.2528 18.8959C48.9286 19.1425 48.7341 19.2822 48.6693 19.3151C48.329 19.4795 47.8671 19.5617 47.2836 19.5617C46.295 19.5617 45.5252 19.3315 44.9741 18.8713C44.4393 18.411 44.1719 17.8767 44.1719 17.2685V7.23289C44.1719 6.69043 44.3988 6.23015 44.8526 5.85207C45.3064 5.47399 45.8979 5.28495 46.6272 5.28495C47.081 5.28495 47.4943 5.33426 47.8671 5.43289C48.2398 5.53152 48.5234 5.65481 48.7179 5.80276V2.10413H52.0971V19.3644ZM48.7179 16.7507V8.07125C48.7179 7.87399 48.6612 7.72605 48.5478 7.62742C48.4505 7.51235 48.3128 7.45481 48.1345 7.45481C47.7455 7.45481 47.551 7.66851 47.551 8.09591V16.7507C47.551 16.9644 47.5997 17.1288 47.6969 17.2439C47.7941 17.3425 47.94 17.3918 48.1345 17.3918C48.329 17.3918 48.4748 17.3425 48.5721 17.2439C48.6693 17.1288 48.7179 16.9644 48.7179 16.7507Z" fill="black"/>
<path d="M60.7624 16.726C60.7624 17.7617 60.3572 18.5178 59.5469 18.9945C58.8986 19.3726 57.9748 19.5617 56.7755 19.5617C55.5762 19.5617 54.6524 19.3562 54.0041 18.9452C53.2262 18.4521 52.8372 17.6713 52.8372 16.6028V8.24385C52.8372 7.1918 53.2181 6.4192 53.9798 5.92605C54.6443 5.49865 55.5762 5.28495 56.7755 5.28495C57.9586 5.28495 58.8824 5.47399 59.5469 5.85207C60.3572 6.31235 60.7624 7.06851 60.7624 8.12057V13.4466H56.2163V16.7014C56.2163 16.9315 56.265 17.1123 56.3622 17.2439C56.4594 17.3589 56.6053 17.4165 56.7998 17.4165C56.9943 17.4165 57.1401 17.3589 57.2374 17.2439C57.3346 17.1123 57.3832 16.9315 57.3832 16.7014V13.8904H60.7624V16.726ZM57.3832 11.3507V8.14522C57.3832 7.91509 57.3346 7.74248 57.2374 7.62742C57.1401 7.51235 56.9943 7.45481 56.7998 7.45481C56.6377 7.45481 56.5 7.51235 56.3865 7.62742C56.2731 7.74248 56.2163 7.91509 56.2163 8.14522V11.3507H57.3832Z" fill="black"/>
<path d="M69.4514 16.6028C69.4514 17.6548 69.0544 18.4274 68.2602 18.9206C67.5795 19.348 66.6395 19.5617 65.4402 19.5617C64.2733 19.5617 63.3657 19.3726 62.7175 18.9945C61.9233 18.5343 61.5263 17.7781 61.5263 16.726V13.7425H64.9054V16.7014C64.9054 16.9315 64.954 17.1123 65.0513 17.2439C65.1485 17.3589 65.2863 17.4165 65.4645 17.4165C65.6428 17.4165 65.7725 17.3589 65.8535 17.2439C65.9507 17.1123 65.9994 16.9315 65.9994 16.7014V15.6165C65.9994 14.663 65.7806 14.0466 65.343 13.7671C64.7271 13.4384 64.1518 13.126 63.6169 12.8302C62.8228 12.3863 62.288 11.9918 62.0125 11.6466C61.7369 11.285 61.5992 10.7754 61.5992 10.1178V8.24385C61.5992 7.1918 61.98 6.4192 62.7418 5.92605C63.4063 5.49865 64.3381 5.28495 65.5375 5.28495C66.7044 5.28495 67.6038 5.47399 68.2359 5.85207C68.9976 6.31235 69.3785 7.06851 69.3785 8.12057V10.8822H66.0723V8.14522C66.0723 7.93153 66.0156 7.76714 65.9021 7.65207C65.7887 7.52057 65.659 7.45481 65.5131 7.45481C65.3511 7.45481 65.2133 7.51235 65.0999 7.62742C64.9864 7.74248 64.9297 7.91509 64.9297 8.14522V9.45207C64.9297 10.0274 65.1728 10.4713 65.659 10.7836L66.9718 11.4986C67.928 12.0082 68.5195 12.3781 68.7464 12.6082C69.2164 13.0685 69.4514 13.7014 69.4514 14.5069V16.6028Z" fill="black"/>
<path d="M73.5238 4.61919H70.1446V2.10413H73.5238V4.61919ZM73.5238 19.3644H70.1446V5.38358H73.5238V19.3644Z" fill="black"/>
<path d="M82.0814 19.1671C82.0814 20.137 81.9761 20.7945 81.7654 21.1397C81.5709 21.485 81.2386 21.7726 80.7686 22.0028C80.4931 22.1343 80.1366 22.2165 79.699 22.2493C79.2776 22.2987 78.759 22.3233 78.1431 22.3233H74.764V20.3014H77.5111C78.0783 20.3014 78.443 20.137 78.605 19.8082C78.6699 19.6767 78.7023 19.4219 78.7023 19.0439C78.4916 19.2082 78.208 19.3315 77.8514 19.4137C77.5111 19.5123 77.0978 19.5617 76.6116 19.5617C75.8985 19.5617 75.3069 19.3726 74.8369 18.9945C74.3831 18.6165 74.1562 18.1562 74.1562 17.6137V7.5781C74.1562 6.95344 74.3345 6.44385 74.6911 6.04933C75.1611 5.53974 75.8823 5.28495 76.8547 5.28495C77.3895 5.28495 77.819 5.36714 78.1431 5.53152C78.4186 5.72878 78.6131 5.85207 78.7266 5.90139L79.1642 5.38358H82.0814V19.1671ZM78.7023 16.874V8.09591C78.7023 7.88221 78.6536 7.72605 78.5564 7.62742C78.4592 7.51235 78.3133 7.45481 78.1188 7.45481C77.7299 7.45481 77.5354 7.66851 77.5354 8.09591V16.8493C77.5354 17.2767 77.7299 17.4904 78.1188 17.4904C78.3133 17.4904 78.4592 17.4411 78.5564 17.3425C78.6536 17.2274 78.7023 17.0713 78.7023 16.874Z" fill="black"/>
<path d="M90.771 19.3644H87.3919V8.14522C87.3919 7.71783 87.1974 7.50413 86.8084 7.50413C86.614 7.50413 86.4681 7.55344 86.3709 7.65207C86.2736 7.7507 86.225 7.90687 86.225 8.12057V19.3644H82.8459V5.38358H86.225V5.85207C86.4195 5.68769 86.695 5.55618 87.0515 5.45755C87.4243 5.34248 87.8457 5.28495 88.3157 5.28495C89.0288 5.28495 89.6122 5.48221 90.066 5.87673C90.536 6.25481 90.771 6.72331 90.771 7.28221V19.3644Z" fill="black"/>
</svg>
